<?xml version="1.0" encoding="UTF-8"?>
<!DOCTYPE svg PUBLIC "-//W3C//DTD SVG 1.1//EN" "http://www.w3.org/Graphics/SVG/1.1/DTD/svg11.dtd">
<!-- Creator: CorelDRAW -->
<svg xmlns="http://www.w3.org/2000/svg" xml:space="preserve" width="9.3428mm" height="10.2667mm" style="shape-rendering:geometricPrecision; text-rendering:geometricPrecision; image-rendering:optimizeQuality; fill-rule:evenodd; clip-rule:evenodd"
viewBox="0 0 0.641383 0.704809"
 xmlns:xlink="http://www.w3.org/1999/xlink">
 <defs>
  <style type="text/css">
   <![CDATA[
    .fil0 {fill:#ABC7B3}
   ]]>
  </style>
 </defs>
 <g id="Layer_x0020_1">
  <metadata id="CorelCorpID_0Corel-Layer"/>
  <path class="fil0" d="M0.559738 0.620191l-0.126151 0 0 -0.243508c0,-0.0216865 -0.0176431,-0.0393227 -0.039309,-0.0393227l-0.147165 0c-0.0216865,0 -0.0393159,0.0176362 -0.0393159,0.0393227l0 0.243508 -0.126144 0 0 -0.313689 0.239039 -0.211394 0.239046 0.211394 0 0.313689zm-0.20479 0l-0.0685264 0 0 -0.213968 0.0685264 0 0 0.213968zm0.251383 -0.387612l-0.235229 -0.213248c-0.000899315,-0.00074142 -0.0229291,-0.0183364 -0.0508697,-0.0193318 -0.0272266,0.000995425 -0.0500253,0.0193936 -0.0505333,0.0198055l-0.235545 0.213646c-0.0272472,0.0304051 -0.0341534,0.0422815 -0.0341534,0.0803892l0 0.321296c0,0.0384097 0.0312632,0.0696729 0.0696866,0.0696729l0.502017 0c0.0384097,0 0.0696798,-0.0312632 0.0696798,-0.0696729l0 -0.321296c0,-0.0381214 -0.0070023,-0.0500665 -0.0350527,-0.081261z"/>
 </g>
</svg>
