<?xml version="1.0" encoding="UTF-8"?>
<!DOCTYPE svg PUBLIC "-//W3C//DTD SVG 1.1//EN" "http://www.w3.org/Graphics/SVG/1.1/DTD/svg11.dtd">
<!-- Creator: CorelDRAW -->
<svg xmlns="http://www.w3.org/2000/svg" xml:space="preserve" width="39.8991mm" height="17.4697mm" style="shape-rendering:geometricPrecision; text-rendering:geometricPrecision; image-rendering:optimizeQuality; fill-rule:evenodd; clip-rule:evenodd"
viewBox="0 0 1.38749 0.607509"
 xmlns:xlink="http://www.w3.org/1999/xlink">
 <defs>
  <style type="text/css">
   <![CDATA[
    .fil0 {fill:#ABC6B4}
   ]]>
  </style>
 </defs>
 <g id="Layer_x0020_1">
  <metadata id="CorelCorpID_0Corel-Layer"/>
  <path class="fil0" d="M1.04215 0.522981c-0.0982672,0.0433088 -0.210643,0.0845276 -0.348411,0.0845276 -0.138502,0 -0.251371,-0.0417091 -0.350003,-0.0852613 0.0986358,-0.0435557 0.211498,-0.0851396 0.350003,-0.0851396 0.136669,0 0.25063,0.042815 0.348404,0.0858768l6.955e-006 -3.4775e-006zm-0.698404 -0.108568l-0.343751 -0.142313 0.693754 -0.2721 0.693737 0.2721 -0.341403 0.141333 0 -0.115074c-0.256403,-0.113234 -0.457973,-0.112494 -0.705414,0.0201208 0.0986393,-0.0435557 0.211498,-0.0852613 0.350003,-0.0852613 0.128198,-3.4775e-006 0.234561,0.0357 0.327918,0.0755695l1.391e-005 0.178736c-0.256399,-0.113109 -0.427426,-0.0978916 -0.674868,0.0347228l1.04325e-005 -0.107834z"/>
 </g>
</svg>
