<?xml version="1.0" encoding="UTF-8"?>
<!DOCTYPE svg PUBLIC "-//W3C//DTD SVG 1.1//EN" "http://www.w3.org/Graphics/SVG/1.1/DTD/svg11.dtd">
<!-- Creator: CorelDRAW -->
<svg xmlns="http://www.w3.org/2000/svg" xml:space="preserve" width="11.5574mm" height="7.7244mm" style="shape-rendering:geometricPrecision; text-rendering:geometricPrecision; image-rendering:optimizeQuality; fill-rule:evenodd; clip-rule:evenodd"
viewBox="0 0 0.138665 0.0926767"
 xmlns:xlink="http://www.w3.org/1999/xlink">
 <defs>
  <style type="text/css">
   <![CDATA[
    .fil0 {fill:#8BAEB8}
   ]]>
  </style>
 </defs>
 <g id="Layer_x0020_1">
  <metadata id="CorelCorpID_0Corel-Layer"/>
  <path class="fil0" d="M0.0700114 0.0221266c-0.0023264,0 -0.00440203,0.00328143 -0.00440203,0.00712556 0,0.00179849 0.000845853,0.00278831 0.00215842,0.00278831 0.00169291,0 0.00321664,-0.00141335 0.00380934,-0.00374095l0.000848252 -0.00356818c-0.000169171,-0.00169051 -0.00110261,-0.00260355 -0.00241398,-0.00260475z"/>
  <path class="fil0" d="M0.016304 0.0172794l0.0443551 0.0366416c0.00241158,0.00188487 0.00566901,0.00273672 0.00884366,0.00261435l0.000213563 0.000152373 0.000254356 -0.000190767c0.00262394,-0.000185968 0.00520349,-0.00101622 0.00723594,-0.00257355l0.0459664 -0.0377106 0 0.00209963 -8.39854e-005 0.0574448 -0.106785 0 0 -0.0561826 0 -0.0022952zm0.0399531 -0.000728273c0.00364017,-0.00430485 0.00897084,-0.00670203 0.0150658,-0.00670203 0.00948315,-2.39958e-006 0.0157881,0.00560902 0.0157881,0.0135108 1.19979e-006,0.00419567 -0.0017361,0.00776265 -0.00478357,0.0101622 -0.00177689,0.00137616 -0.00385133,0.00204084 -0.00600975,0.00204084 -0.00266594,-3.59937e-006 -0.0040205,-0.000877047 -0.00427486,-0.00278112 -0.00139656,0.00190167 -0.00296348,0.00274632 -0.00524909,0.00274632 -0.00418967,-2.39958e-006 -0.00626411,-0.00211163 -0.00626411,-0.00638289 1.19979e-006,-0.00607094 0.00397851,-0.0105138 0.00910042,-0.0105138 0.00182128,0 0.00321664,0.000741471 0.0040205,0.00204924l0.000891445 -0.00152014 0.00444283 0 -0.00283631 0.0114328c-4.19927e-005,0.000208764 -8.51852e-005,0.000388732 -8.51852e-005,0.000562702 2.39958e-006,0.000565102 0.000296348,0.00091904 0.000847053,0.00091904 0.00292149,-1.19979e-006 0.00609494,-0.00377574 0.00609494,-0.0086433 0,-0.00564262 -0.00448722,-0.00959593 -0.0116404,-0.00959593 -0.0034698,-3.59937e-006 -0.00651727,0.000880647 -0.00893005,0.00257355 -0.00376614,0.00260835 -0.00588378,0.00666724 -0.00588378,0.0112924 1.19979e-006,0.00711956 0.00520709,0.0117124 0.0134173,0.0117124 0.00389452,-2.39958e-006 0.0074915,-0.0011302 0.0106661,-0.00338581l0.00211643 0.00292149c-0.00397851,0.00293349 -0.00825336,0.00437444 -0.0132061,0.00437444 -0.004612,-3.59937e-006 -0.00876088,-0.00140975 -0.0118083,-0.00387653 -0.00359577,-0.0028603 -0.00546025,-0.00673803 -0.00546025,-0.0116392 0,-0.00430605 0.00139656,-0.00815258 0.00398091,-0.0112576zm0.0703438 -0.0165511l-0.00406129 0 -0.10723 0 -0.00322384 0c-0.00667564,0 -0.0120855,0.00541346 -0.0120855,0.0120879l0 0.0685033c0,0.00667564 0.00540866,0.0120855 0.0120831,0.0120855l0.114518 -1.19979e-006c0.00664564,0 0.0120627,-0.00540746 0.0120627,-0.0120819l1.19979e-006 -0.0685093c0,-0.00667084 -0.00541946,-0.0120843 -0.0120639,-0.0120843z"/>
 </g>
</svg>
