<?xml version="1.0" encoding="UTF-8"?>
<!DOCTYPE svg PUBLIC "-//W3C//DTD SVG 1.1//EN" "http://www.w3.org/Graphics/SVG/1.1/DTD/svg11.dtd">
<!-- Creator: CorelDRAW -->
<svg xmlns="http://www.w3.org/2000/svg" xml:space="preserve" width="24.7965mm" height="20.1673mm" style="shape-rendering:geometricPrecision; text-rendering:geometricPrecision; image-rendering:optimizeQuality; fill-rule:evenodd; clip-rule:evenodd"
viewBox="0 0 0.522202 0.424713"
 xmlns:xlink="http://www.w3.org/1999/xlink">
 <defs>
  <style type="text/css">
   <![CDATA[
    .fil1 {fill:#C8B2A0}
    .fil0 {fill:#D4BFA7}
    .fil2 {fill:#DEC3AF}
   ]]>
  </style>
 </defs>
 <g id="Layer_x0020_1">
  <metadata id="CorelCorpID_0Corel-Layer"/>
  <path class="fil0" d="M0.315227 0.190378c0,-0.0180712 -8.4238e-006,-0.0372058 -8.4238e-006,-0.0555781 8.4238e-006,-0.0181722 0.00118986,-0.0164264 0,-0.0278006 -0.0046731,-0.0139077 -0.0138929,-0.0185218 -0.0231802,-0.0185218 -0.0198296,0 -0.0263728,0 -0.0416767,0 -0.0186482,0 -0.0276364,-6.73904e-005 -0.0462109,-6.73904e-005 -0.00921142,0 -0.0153039,-0.000602302 -0.0221398,0.00563973 -0.00935463,0.0106077 -0.00846802,0.0115532 -0.00846802,0.0412029 0,0.0146553 0,0.0402152 0,0.0565658 0,0.0146321 -0.00245343,0.0373996 0.0121829,0.0373996 0.0139014,0 0.0138192,-0.0099106 0.0138192,-0.0247028 6.31785e-006,-0.020891 -7.37082e-005,-0.0262928 -7.37082e-005,-0.0386315 6.31785e-006,-0.013476 -0.0007434,-0.0157799 0.00193116,-0.0157799 0.00275458,-4.2119e-006 0.00274826,0.000185324 0.00274826,0.0145163 6.31785e-006,0.0132696 -0.000147416,0.200242 -0.000147416,0.211067 4.2119e-006,0.00926407 0.00497636,0.0191831 0.0188693,0.0191831 0.013973,-6.31785e-006 0.0197622,-0.00813528 0.0197622,-0.0173994 2.10595e-006,-0.0166897 0,-0.0893681 0,-0.0972717 2.10595e-006,-0.0092746 0.000296939,-0.0137519 0.00260085,-0.0137519 0.00238394,-4.2119e-006 0.00200486,0.00447935 0.00200486,0.0137519 2.10595e-006,0.00834377 0,0.0801545 0,0.0972717 2.10595e-006,0.00575135 0.00616622,0.0182754 0.0200592,0.0182754 0.00921353,-4.2119e-006 0.0177574,-0.0119091 0.0177574,-0.0180817 6.31785e-006,-0.0370521 0.000221125,-0.201944 0.000221125,-0.213609 2.10595e-006,-0.00631574 -0.000518064,-0.0143394 0.00185745,-0.0143394 0.00230601,0 0.00230391,0.00217123 0.00230391,0.0112858 2.10595e-006,0.0104539 0,0.0210258 0,0.035698 2.10595e-006,0.0243342 0.0037886,0.0307511 0.0130021,0.0307511 0.0138972,-6.31785e-006 0.0127768,-0.0237972 0.0127852,-0.0370731zm-0.0730322 -0.107292c0.0184966,0 0.0374375,-0.0174983 0.0374375,-0.0360412 6.31785e-006,-0.0185281 -0.0179785,-0.0373932 -0.0365509,-0.0373932 -0.0184966,-6.31785e-006 -0.0369236,0.0193242 -0.0369236,0.037846 6.31785e-006,0.0185134 0.017532,0.0355927 0.036037,0.0355884z"/>
  <path class="fil1" d="M0.52161 0.198802c0,-0.0198654 -4.2119e-006,-0.040927 -4.2119e-006,-0.061142 4.2119e-006,-0.0199791 0.00133728,-0.018069 0,-0.0305721 -0.00511956,-0.0152934 -0.0153039,-0.0203709 -0.0254841,-0.0203709 -0.0217587,-4.2119e-006 -0.0289715,0 -0.0458381,0 -0.0205035,-4.2119e-006 -0.0304583,-7.37082e-005 -0.0508145,-7.37082e-005 -0.0101738,-4.2119e-006 -0.0167907,-0.000661268 -0.02437,0.00620202 -0.0103255,0.0116712 -0.00928513,0.0127052 -0.00928513,0.0453264 4.2119e-006,0.0161084 0,0.0442355 0,0.0622287 4.2119e-006,0.0160873 -0.00275037,0.0411292 0.0133728,0.0411292 0.015306,0 0.0151544,-0.0109067 0.0151544,-0.0271625 2.10595e-006,-0.0229864 0,-0.0289294 0,-0.0425023 2.10595e-006,-0.0148364 -0.000890817,-0.0173551 0.00208068,-0.0173551 0.00305363,-4.2119e-006 0.00297149,0.000191641 0.00297149,0.0159652 6.31785e-006,0.0145963 -7.37082e-005,0.220272 -7.37082e-005,0.232166 4.2119e-006,0.0101844 0.00542282,0.0210995 0.0208026,0.0210995 0.0153081,-8.4238e-006 0.0216934,-0.00894397 0.0216934,-0.0191389 0,-0.0183639 0,-0.0982889 0,-0.106997 0,-0.0101991 0.000296939,-0.0151186 0.00282197,-0.0151186 0.00260295,-4.2119e-006 0.0022302,0.00492582 0.0022302,0.0151186 6.31785e-006,0.00918405 0,0.0881719 0,0.106997 6.31785e-006,0.00634312 0.0067601,0.0201118 0.022064,0.0201118 0.0101865,-2.10595e-006 0.019539,-0.0131053 0.019539,-0.0198949 8.4238e-006,-0.0407628 0.000223231,-0.222138 0.000223231,-0.234967 2.10595e-006,-0.00695385 -0.000593878,-0.0157736 0.00200486,-0.0157736 0.00260295,-6.31785e-006 0.00252714,0.00239236 0.00252714,0.0124083 0,0.0114964 0,0.0231339 0,0.0392633 0,0.0267856 0.00416136,0.0338321 0.0144131,0.0338321 0.0152323,0 0.0139667,-0.0261727 0.0139709,-0.0407796zm-0.0803125 -0.118022c0.0204277,0 0.0411566,-0.0192484 0.0411566,-0.0396424 0,-0.0203856 -0.0197643,-0.0411355 -0.0401183,-0.0411355 -0.0204277,-2.10595e-006 -0.0407143,0.0212553 -0.0407143,0.0416409 2.10595e-006,0.0203645 0.0193179,0.039137 0.0396761,0.039137z"/>
  <path class="fil2" d="M0.127631 0.181952c0,-0.0162558 -2.10595e-006,-0.0334846 -2.10595e-006,-0.0500205 2.10595e-006,-0.0163506 0.00104034,-0.0147838 0,-0.0250145 -0.00423506,-0.0125136 -0.0125557,-0.0166707 -0.0208763,-0.0166707 -0.0178269,-6.31785e-006 -0.0237741,0 -0.0375175,0 -0.0167844,-6.31785e-006 -0.0248881,-6.10725e-005 -0.0416051,-6.10725e-005 -0.0083185,-4.2119e-006 -0.0137434,-0.000534911 -0.0199096,0.00507534 -0.00846802,0.00954838 -0.00757931,0.0103929 -0.00757931,0.0370795 6.31785e-006,0.013179 0,0.036195 0,0.050905 6.31785e-006,0.0131748 -0.00222809,0.0336636 0.0109215,0.0336636 0.012562,-2.10595e-006 0.0124061,-0.00892291 0.0124061,-0.0222283 6.31785e-006,-0.018804 0,-0.0236709 0,-0.0347692 6.31785e-006,-0.0121261 -0.000741294,-0.0142131 0.00171003,-0.0142131 0.00245764,-2.10595e-006 0.00245133,0.000170582 0.00245133,0.0130674 6.31785e-006,0.0119534 -7.37082e-005,0.180221 -7.37082e-005,0.189976 4.2119e-006,0.00832903 0.00445619,0.0172583 0.017014,0.0172583 0.0124862,-4.2119e-006 0.0176816,-0.00733292 0.0176816,-0.0156746 4.2119e-006,-0.0150196 0,-0.0804241 0,-0.0875401 4.2119e-006,-0.0083522 0.000296939,-0.0123703 0.00237551,-0.0123703 0.00208278,-2.10595e-006 0.00185745,0.00402658 0.00185745,0.0123703 8.4238e-006,0.00752035 0,0.0721456 0,0.0875401 8.4238e-006,0.00518906 0.00549863,0.0164538 0.0179806,0.0164538 0.00832061,-6.31785e-006 0.0160473,-0.010713 0.0160473,-0.0162685 6.31785e-006,-0.0333498 0.000147416,-0.181752 0.000147416,-0.19225 0,-0.00568606 -0.000444355,-0.0128968 0.00163422,-0.0128968 0.0021607,-2.10595e-006 0.00208068,0.0019459 0.00208068,0.010157 4.2119e-006,0.00939885 0,0.018922 0,0.0321157 4.2119e-006,0.0219061 0.00341796,0.0276827 0.0118123,0.0276827 0.0124883,0 0.0114416,-0.0214112 0.0114437,-0.0333667zm-0.065752 -0.0965599c0.016717,0 0.0336552,-0.0157546 0.0336552,-0.0324337 2.10595e-006,-0.016677 -0.0161232,-0.0336552 -0.0328381,-0.0336552 -0.0166391,-6.31785e-006 -0.0332087,0.0173909 -0.0332087,0.0340553 4.2119e-006,0.0166644 0.0157504,0.0320357 0.0323916,0.0320336z"/>
 </g>
</svg>
