<?xml version="1.0" encoding="UTF-8"?>
<!DOCTYPE svg PUBLIC "-//W3C//DTD SVG 1.1//EN" "http://www.w3.org/Graphics/SVG/1.1/DTD/svg11.dtd">
<!-- Creator: CorelDRAW -->
<svg xmlns="http://www.w3.org/2000/svg" xml:space="preserve" width="6.465mm" height="17.5363mm" style="shape-rendering:geometricPrecision; text-rendering:geometricPrecision; image-rendering:optimizeQuality; fill-rule:evenodd; clip-rule:evenodd"
viewBox="0 0 0.0483612 0.13118"
 xmlns:xlink="http://www.w3.org/1999/xlink">
 <defs>
  <style type="text/css">
   <![CDATA[
    .fil0 {fill:#D6BDA6}
   ]]>
  </style>
 </defs>
 <g id="Layer_x0020_1">
  <metadata id="CorelCorpID_0Corel-Layer"/>
  <path class="fil0" d="M0.0481817 0.0614057c0,-0.00614296 -1.49609e-006,-0.0126427 -1.49609e-006,-0.0188889 1.49609e-006,-0.00617064 0.000406189,-0.00557893 0,-0.0094396 -0.00157688,-0.00472616 -0.00472317,-0.00629631 -0.00786945,-0.00629631 -0.00673392,-7.48047e-007 -0.00896385,0 -0.0141658,0 -0.00632474,-7.48047e-007 -0.00939472,-1.87012e-005 -0.0156933,-1.87012e-005 -0.0031403,-2.24414e-006 -0.00519369,-0.000205713 -0.00752909,0.0019135 -0.00318444,0.00360559 -0.00286876,0.0039265 -0.00286876,0.0139967 0,0.00497601 0,0.0136646 0,0.0192226 0,0.00497002 -0.000839309,0.0127063 0.00414343,0.0127063 0.00472466,-2.24414e-006 0.00468427,-0.00336995 0.00468427,-0.00839234 7.48047e-007,-0.00709822 -2.16934e-005,-0.00893766 -2.16934e-005,-0.013129 1.49609e-006,-0.00457954 -0.000261068,-0.00535901 0.00066277,-0.00535901 0.00092683,-1.49609e-006 0.000918602,6.28359e-005 0.000918602,0.00493187 7.48047e-007,0.00450773 -3.44102e-005,0.0680371 -3.44102e-005,0.0717138 7.48047e-007,0.00314255 0.00167787,0.00651773 0.00642049,0.00651773 0.00472691,-2.24414e-006 0.00669726,-0.00276553 0.00669726,-0.00591406 7.48047e-007,-0.00567319 0,-0.0303632 0,-0.0330495 7.48047e-007,-0.00314853 0.000105475,-0.0046738 0.000887184,-0.0046738 0.000794426,-7.48047e-007 0.000688203,0.00152527 0.000688203,0.0046738 7.48047e-007,0.00283659 0,0.0272334 0,0.0330495 7.48047e-007,0.00195689 0.00207733,0.00620954 0.00680049,0.00620954 0.00314703,-1.49609e-006 0.00604347,-0.00404544 0.00604347,-0.00614296 1.49609e-006,-0.0125911 7.10645e-005,-0.0686131 7.10645e-005,-0.0725763 1.49609e-006,-0.00214615 -0.000184768,-0.00486904 0.000620131,-0.00486904 0.00080041,-2.99219e-006 0.000786945,0.000736078 0.000786945,0.0038315 0,0.00355247 0,0.00714385 0,0.0121258 0,0.00827115 0.00128514,0.010448 0.00443592,0.010448 0.00471868,-7.48047e-007 0.00432222,-0.0080834 0.00432371,-0.0125911zm-0.0248045 -0.0364538c0.00629407,0 0.0127116,-0.00594772 0.0127116,-0.0122448 7.48047e-007,-0.00629856 -0.0061093,-0.0127063 -0.0124034,-0.0127063 -0.00629332,-2.24414e-006 -0.012556,0.00656336 -0.012556,0.0128597 1.49609e-006,0.00629033 0.00595371,0.0120914 0.0122478,0.0120914z"/>
 </g>
</svg>
