<?xml version="1.0" encoding="UTF-8"?>
<!DOCTYPE svg PUBLIC "-//W3C//DTD SVG 1.1//EN" "http://www.w3.org/Graphics/SVG/1.1/DTD/svg11.dtd">
<!-- Creator: CorelDRAW -->
<svg xmlns="http://www.w3.org/2000/svg" xml:space="preserve" width="6.8582mm" height="11.5571mm" style="shape-rendering:geometricPrecision; text-rendering:geometricPrecision; image-rendering:optimizeQuality; fill-rule:evenodd; clip-rule:evenodd"
viewBox="0 0 0.0481919 0.0812106"
 xmlns:xlink="http://www.w3.org/1999/xlink">
 <defs>
  <style type="text/css">
   <![CDATA[
    .fil0 {fill:#858889}
   ]]>
  </style>
 </defs>
 <g id="Layer_x0020_1">
  <metadata id="CorelCorpID_0Corel-Layer"/>
  <path class="fil0" d="M0.0397139 0.0394216c0,0.00139484 -0.00114117,0.00253671 -0.00255428,0.00253671l-0.0261274 -1.40538e-006c-0.00138852,0 -0.00252898,-0.00113836 -0.00252898,-0.0025339l0 -0.0158998c0,-0.00140327 0.00113976,-0.00253671 0.00252828,-0.00253671l0.0261288 -1.40538e-006c0.00141311,0 0.00255287,0.00113695 0.00255287,0.00253812l7.0269e-007 0.0158984zm-0.0156173 0.0321137c-0.00275244,0 -0.00498418,-0.00223877 -0.00498418,-0.00499543 7.0269e-007,-0.00275806 0.00223104,-0.0049898 0.00498278,-0.0049898 0.00277773,-2.10807e-006 0.00498278,0.00223315 0.00498278,0.0049898 7.0269e-007,0.00275595 -0.00220645,0.00499753 -0.00498137,0.00499543zm0.0114272 -0.0613709l-0.0197575 0 0 -0.00572833c0,-0.00245379 -0.00198299,-0.00443819 -0.00443749,-0.00443538 -0.00245379,-1.40538e-006 -0.00443679,0.00199283 -0.00443679,0.00444171l7.0269e-007 0.00713863c-0.00409036,0.00211158 -0.00689269,0.00637691 -0.00689269,0.0112754l1.40538e-006 0.0237074c0,0.00697771 0.00113906,0.0176284 0.00252758,0.0236673 0.00138922,0.00603892 0.0082545,0.0109795 0.0152203,0.0109795l0.0126934 -1.40538e-006c0.00696507,0 0.0138311,-0.00507834 0.0152196,-0.0112803 0.00138922,-0.00621389 0.00252828,-0.0169981 0.00252828,-0.0239765l1.40538e-006 -0.0230988c0,-0.00697771 -0.00570303,-0.0126871 -0.0126681,-0.0126892z"/>
 </g>
</svg>
