<?xml version="1.0" encoding="UTF-8"?>
<!DOCTYPE svg PUBLIC "-//W3C//DTD SVG 1.1//EN" "http://www.w3.org/Graphics/SVG/1.1/DTD/svg11.dtd">
<!-- Creator: CorelDRAW -->
<svg xmlns="http://www.w3.org/2000/svg" xml:space="preserve" width="55.4323mm" height="41.7937mm" style="shape-rendering:geometricPrecision; text-rendering:geometricPrecision; image-rendering:optimizeQuality; fill-rule:evenodd; clip-rule:evenodd"
viewBox="0 0 2.75348 2.07602"
 xmlns:xlink="http://www.w3.org/1999/xlink">
 <defs>
  <style type="text/css">
   <![CDATA[
    .fil2 {fill:#758E85}
    .fil3 {fill:#7A7B7E}
    .fil0 {fill:#ABADB0}
    .fil4 {fill:#B8D1C0}
    .fil1 {fill:#C2C2C3}
    .fil6 {fill:#D6DC40}
    .fil7 {fill:#F05E68}
    .fil5 {fill:#FEFEFE}
   ]]>
  </style>
 </defs>
 <g id="Layer_x0020_1">
  <metadata id="CorelCorpID_0Corel-Layer"/>
  <path class="fil0" d="M0.963635 1.99298c0,0.108878 0.118266,0.0793922 0.264414,0.0793922l0.297377 -4.96729e-006c0.146158,0 0.264429,0.0294958 0.264429,-0.0793773l-0.15332 -0.329843 -0.519584 0 -0.153316 0.329833z"/>
  <path class="fil1" d="M2.68269 1.37434l-2.6117 0c-0.031895,0 -0.0585445,-0.0211855 -0.0674807,-0.0501001l0 0.204951c0,0.0739878 0.0599304,0.133973 0.133878,0.133973l0.979565 -1.49019e-005 0.519584 0 0.979565 0c0.0741219,0 0.134042,-0.0599701 0.134042,-0.133953l9.93459e-006 -0.205229c-0.00893119,0.0290984 -0.0355807,0.0503733 -0.0674608,0.0503733z"/>
  <polygon class="fil2" points="0.14196,1.23242 2.61172,1.23242 2.61172,0.14194 0.14196,0.14194 "/>
  <path class="fil3" d="M2.61172 1.23242l-2.46976 0 0 -1.09048 2.46976 0 0 1.09048zm0.0709677 -1.23242l-2.6117 0c-0.0392516,0 -0.0709876,0.0317758 -0.0709876,0.0709777l1.98692e-005 1.23241c0,0.00729199 0.00138587,0.0142114 0.00348704,0.0208527 0.00895106,0.0289047 0.0355708,0.0501001 0.0674658,0.0501001l2.61172 0c0.0318801,0 0.0585147,-0.021255 0.0674509,-0.0503634 0.00212103,-0.00655186 0.00332809,-0.0133869 0.00332809,-0.0205894l1.49019e-005 -1.23242c0,-0.0392118 -0.0317311,-0.0709628 -0.0707939,-0.0709727z"/>
  <path class="fil4" d="M0.719875 0.839617c0.0294312,-0.0401953 0.0956701,-0.0846427 0.0837535,-0.178778 -0.0106747,-0.0858994 -0.107597,-0.165018 -0.224825,-0.143237 -0.114953,0.0195066 -0.114079,0.103037 -0.11776,0.108575 -0.0036609,0.00549879 -0.000526533,0.028403 -0.00245384,0.0361867l-0.0348605 0.0472191c-0.00157463,0.00201175 -0.0108734,0.00827551 -0.0105257,0.017773 0.000352678,0.00953224 0.006835,0.00983027 0.0154234,0.014122 0.00858845,0.00426194 0.00455501,0.0107244 0.00455501,0.0107244 -0.00402847,0.0131931 -0.006835,0.0122841 -0.006835,0.0193327 4.96729e-006,0.00468416 0.00964152,0.00796754 0.00964152,0.00796754 4.96729e-006,-1.49019e-005 -0.0122692,0.00520572 -0.006835,0.0214885 0.00350691,0.0101382 0.00490272,0.00457488 0.00648232,0.0125623 0.0005315,0.00266247 -0.000700388,0.00888649 -0.00210117,0.0144052 -0.00998426,0.0358291 0.0210266,0.0374137 0.0210266,0.0374137 0,-9.93459e-006 0.00858845,0.000312939 0.0304892,0.00246874 0.00911498,0.00365593 0.01595,0.00121202 0.0345227,0.0212203 0.0210415,0.0224919 0.0194519,0.0658713 0.0194519,0.0658713l0.191375 -9.93459e-006c0,0 -0.0114099,-0.0380147 -0.0133372,-0.0456892 0.00141071,-0.00737643 -0.0108635,-0.0374137 0.00281149,-0.0696166z"/>
  <path class="fil5" d="M0.912104 1.07352l-0.6135 0 0 -0.753543 0.444235 0 0 0.166896 0.169265 0 0 0.586647zm-0.161556 -0.811383l-0.509763 0 0 0.869247 0.729159 0 0 -0.653736 -0.219395 -0.215511z"/>
  <path class="fil6" d="M1.50143 0.839617c0.0294312,-0.0401953 0.0956601,-0.0846427 0.0837436,-0.178778 -0.0106846,-0.0858994 -0.107592,-0.165018 -0.224825,-0.143237 -0.114943,0.0195066 -0.114079,0.103037 -0.11776,0.108575 -0.00367083,0.00549879 -0.000526533,0.028403 -0.00245384,0.0361867l-0.0348704 0.0472191c-0.00157463,0.00201175 -0.0108635,0.00827551 -0.0105158,0.017773 0.000362612,0.00953224 0.006835,0.00983027 0.0154234,0.014122 0.00859838,0.00426194 0.00455501,0.0107244 0.00455501,0.0107244 -0.00401854,0.0131931 -0.006835,0.0122841 -0.006835,0.0193327 1.49019e-005,0.00468416 0.00963655,0.00796754 0.00963655,0.00796754 1.98692e-005,-1.49019e-005 -0.0122642,0.00520572 -0.00683003,0.0214885 0.00351684,0.0101382 0.00490272,0.00457488 0.00648232,0.0125623 0.000526533,0.00266247 -0.000700388,0.00888649 -0.00210613,0.0144052 -0.00998426,0.0358291 0.0210315,0.0374137 0.0210315,0.0374137 9.93459e-006,-9.93459e-006 0.00858845,0.000312939 0.0304892,0.00246874 0.00912988,0.00365593 0.01595,0.00121202 0.0345227,0.0212203 0.0210315,0.0224919 0.019447,0.0658713 0.019447,0.0658713l0.19137 -9.93459e-006c0,0 -0.0113999,-0.0380147 -0.0131534,-0.0456892 0.00106797,-0.00737643 -0.0110373,-0.0374137 0.00264757,-0.0696166z"/>
  <path class="fil5" d="M1.69366 1.07352l-0.613495 0 0 -0.753543 0.44421 0 0 0.166896 0.169285 0 0 0.586647zm-0.161576 -0.811383l-0.509763 0 0 0.869247 0.729159 0 0 -0.653736 -0.219395 -0.215511z"/>
  <path class="fil7" d="M2.3005 0.839617c0.0294312,-0.0401953 0.0956651,-0.0846427 0.0837535,-0.178778 -0.0106747,-0.0858994 -0.107597,-0.165018 -0.22483,-0.143237 -0.114948,0.0195066 -0.114074,0.103037 -0.117755,0.108575 -0.00368076,0.00549879 -0.000700388,0.028403 -0.00245384,0.0361867l-0.0348555 0.0472191c-0.0015796,0.00201175 -0.0108833,0.00827551 -0.0105307,0.017773 0.000357645,0.00953224 0.006835,0.00983027 0.0154185,0.014122 0.00859342,0.00426194 0.00455998,0.0107244 0.00455998,0.0107244 -0.00402847,0.0131931 -0.006835,0.0122841 -0.006835,0.0193327 4.96729e-006,0.00468416 0.00963655,0.00796754 0.00963655,0.00796754 9.93459e-006,-1.49019e-005 -0.0122642,0.00520572 -0.006835,0.0214885 0.00351188,0.0101382 0.00490769,0.00457488 0.00648728,0.0125623 0.000536468,0.00266247 -0.000705356,0.00888649 -0.00210613,0.0144052 -0.00997432,0.0358291 0.0210315,0.0374137 0.0210315,0.0374137 4.96729e-006,-9.93459e-006 0.00858348,0.000312939 0.0304892,0.00246874 0.00911995,0.00365593 0.015945,0.00121202 0.0345227,0.0212203 0.0210415,0.0224919 0.019447,0.0658713 0.019447,0.0658713l0.19136 -9.93459e-006c0,0 -0.01139,-0.0380147 -0.0131435,-0.0456892 0.001063,-0.00737643 -0.0110423,-0.0374137 0.00263763,-0.0696166z"/>
  <path class="fil5" d="M2.49273 1.07352l-0.613495 0 0 -0.753543 0.444215 0 0 0.166896 0.16928 0 0 0.586647zm-0.161571 -0.811383l-0.509744 0 0 0.869247 0.729139 0 0 -0.653736 -0.219395 -0.215511z"/>
 </g>
</svg>
