<?xml version="1.0" encoding="UTF-8"?>
<!DOCTYPE svg PUBLIC "-//W3C//DTD SVG 1.1//EN" "http://www.w3.org/Graphics/SVG/1.1/DTD/svg11.dtd">
<!-- Creator: CorelDRAW -->
<svg xmlns="http://www.w3.org/2000/svg" xml:space="preserve" width="13.3223mm" height="9.5462mm" style="shape-rendering:geometricPrecision; text-rendering:geometricPrecision; image-rendering:optimizeQuality; fill-rule:evenodd; clip-rule:evenodd"
viewBox="0 0 0.205469 0.14723"
 xmlns:xlink="http://www.w3.org/1999/xlink">
 <defs>
  <style type="text/css">
   <![CDATA[
    .fil0 {fill:#758E85}
   ]]>
  </style>
 </defs>
 <g id="Layer_x0020_1">
  <metadata id="CorelCorpID_0Corel-Layer"/>
  <path class="fil0" d="M0.185481 0.100604l-0.16549 0 0 -0.0820701 0.16549 0 0 0.0820701zm0.00444335 -0.100604l-0.00522683 0 -0.165016 0 -0.00413952 0c-0.00858903,0 -0.0155417,0.00696654 -0.0155417,0.0155479l0 0.0880495c0,0.00858132 0.00695266,0.0155448 0.0155386,0.0155448l0.0583727 -3.08459e-006 -0.0094851 0.0203891c0,0.0100866 0.010978,0.00736754 0.0245101,0.00736754l0.0275793 -4.62688e-006c0.0135398,0 0.0245225,0.00272523 0.0245225,-0.00736291l-0.00947739 -0.0203891 0.0583635 0c0.00858132,0 0.0155448,-0.00695574 0.0155448,-0.0155371l0 -0.0880542c0,-0.00858286 -0.006965,-0.0155448 -0.0155448,-0.0155479z"/>
  <path class="fil0" d="M0.0446432 0.0724724c0.000979356,0.00351951 0.00178906,0.00429066 0.00504176,0.00429066 0.00336528,-6.16917e-006 0.00428758,-0.000707913 0.00510345,-0.00428758l0.00390817 -0.0181281 0.00411947 0.018125c0.000761893,0.00347016 0.00183687,0.00429066 0.0049338,0.00429066 0.00303523,-6.16917e-006 0.00396061,-0.000658559 0.00498932,-0.00428758l0.00602266 -0.0214811c0.000271444,-0.000869854 0.000434927,-0.00162712 0.000434927,-0.00222553 3.08459e-006,-0.00232886 -0.00146364,-0.00368917 -0.00379713,-0.00368917 -0.00178906,-4.62688e-006 -0.00325424,0.00125234 -0.00379867,0.00363519l-0.00423051 0.0181142 -0.00368454 -0.0174079c-0.000761893,-0.00341618 -0.00190011,-0.00428758 -0.00494151,-0.00428758 -0.00303523,-4.62688e-006 -0.00422743,0.000925376 -0.00487982,0.00428912l-0.00347016 0.0174063 -0.0042336 -0.0179538c-0.000593783,-0.00254633 -0.00194946,-0.0037416 -0.00396215,-0.0037416 -0.00221628,-4.62688e-006 -0.00384648,0.00168264 -0.00384648,0.00396215 1.54229e-006,0.000593783 0.000109503,0.00124617 0.000326966,0.00211603l0.00596405 0.0212605z"/>
  <path class="fil0" d="M0.0886063 0.0724724c0.000974729,0.00351951 0.00178752,0.00429066 0.00504176,0.00429066 0.00336374,-6.16917e-006 0.00428758,-0.000707913 0.00510345,-0.00428758l0.00390663 -0.0181281 0.00411947 0.018125c0.000755724,0.00347016 0.00183841,0.00429066 0.0049338,0.00429066 0.00303832,-6.16917e-006 0.00396061,-0.000658559 0.00498932,-0.00428758l0.0060242 -0.0214811c0.000272986,-0.000869854 0.000433384,-0.00162712 0.000433384,-0.00222553 1.54229e-006,-0.00232886 -0.00146826,-0.00368917 -0.00379713,-0.00368917 -0.00178906,-4.62688e-006 -0.0032527,0.00125234 -0.00379713,0.00363519l-0.00422743 0.0181142 -0.00369379 -0.0174079c-0.000755724,-0.00341618 -0.00189394,-0.00428758 -0.00493071,-0.00428758 -0.00303832,-4.62688e-006 -0.0042336,0.000925376 -0.00488599,0.00428912l-0.00346862 0.0174063 -0.00422897 -0.0179538c-0.000603037,-0.00254633 -0.00195409,-0.0037416 -0.00396215,-0.0037416 -0.00222399,-4.62688e-006 -0.00385111,0.00168264 -0.00385111,0.00396215 0,0.000593783 0.000107961,0.00124617 0.000325424,0.00211603l0.00596559 0.0212605z"/>
  <path class="fil0" d="M0.132568 0.0724724c0.000979356,0.00351951 0.00178906,0.00429066 0.00504176,0.00429066 0.00336528,-6.16917e-006 0.00428758,-0.000707913 0.00510345,-0.00428758l0.003902 -0.0181281 0.00411947 0.018125c0.000761893,0.00347016 0.00184921,0.00429066 0.00493997,0.00429066 0.00303678,-6.16917e-006 0.00395444,-0.000658559 0.00498778,-0.00428758l0.00602111 -0.0214811c0.000274528,-0.000869854 0.000431842,-0.00162712 0.000431842,-0.00222553 3.08459e-006,-0.00232886 -0.00146364,-0.00368917 -0.00379096,-0.00368917 -0.00178906,-4.62688e-006 -0.00325424,0.00125234 -0.00379867,0.00363519l-0.00423051 0.0181142 -0.00369071 -0.0174079c-0.000761893,-0.00341618 -0.00189394,-0.00428758 -0.00493534,-0.00428758 -0.00303369,-4.62688e-006 -0.00422743,0.000925376 -0.00488136,0.00428912l-0.00346862 0.0174063 -0.0042336 -0.0179538c-0.000599952,-0.00254633 -0.00195409,-0.0037416 -0.00396215,-0.0037416 -0.00222244,-4.62688e-006 -0.00384648,0.00168264 -0.00384648,0.00396215 1.54229e-006,0.000593783 0.000107961,0.00124617 0.000326966,0.00211603l0.00596405 0.0212605z"/>
 </g>
</svg>
